Coordinates
version=1
nRows=60
nColumns=12
inDegrees=yes

Units are S.I. units (second, meters, Newtons, ...)
Angles are in degrees

endheader
time	SC_y	SC_z	SC_x	AC_y	AC_z	AC_x	GH_y	GH_z	GH_yy	EL_x	PS_y
       0.0              -41.32          28.95          36.72          63.68         -10.55          8.423          55.25           86.3         -119.3          51.76          121.5
      0.05              -41.32          28.95          36.71          63.68         -10.55          8.421          55.21          86.29         -119.3          51.75          121.5
       0.1              -41.32          28.95          36.71          63.68         -10.55          8.419          55.18          86.27         -119.3          51.75          121.5
      0.15              -41.32          28.94          36.71          63.68         -10.55          8.416          55.14          86.26         -119.2          51.75          121.5
       0.2              -41.33          28.94           36.7          63.68         -10.55          8.414           55.1          86.24         -119.2          51.74          121.4
      0.25              -41.33          28.94           36.7          63.68         -10.55          8.411          55.05          86.23         -119.2          51.74          121.4
       0.3              -41.33          28.94          36.69          63.68         -10.56          8.408          55.01          86.21         -119.2          51.74          121.4
      0.35              -41.33          28.94          36.69          63.68         -10.56          8.405          54.96          86.19         -119.1          51.73          121.4
       0.4              -41.33          28.94          36.68          63.68         -10.56          8.402           54.9          86.17         -119.1          51.73          121.4
      0.45              -41.34          28.94          36.68          63.68         -10.56          8.399          54.85          86.15         -119.1          51.72          121.3
       0.5              -41.34          28.93          36.67          63.68         -10.56          8.395          54.78          86.13         -119.0          51.72          121.3
      0.55              -41.34          28.93          36.66          63.68         -10.56          8.391          54.72           86.1         -119.0          51.71          121.3
       0.6              -41.35          28.93          36.66          63.68         -10.56          8.386          54.65          86.08         -119.0          51.71          121.3
      0.65              -41.35          28.93          36.65          63.68         -10.56          8.382          54.57          86.05         -118.9           51.7          121.2
       0.7              -41.35          28.92          36.64          63.68         -10.56          8.377          54.49          86.02         -118.9          51.69          121.2
      0.75              -41.36          28.92          36.63          63.68         -10.56          8.371           54.4          85.98         -118.8          51.69          121.2
       0.8              -41.36          28.92          36.62          63.69         -10.56          8.365           54.3          85.95         -118.8          51.68          121.1
      0.85              -41.37          28.91          36.61          63.69         -10.56          8.359          54.19          85.91         -118.7          51.67          121.1
       0.9              -41.37          28.91           36.6          63.69         -10.57          8.352          54.07          85.86         -118.6          51.66          121.0
      0.95              -41.38          28.91          36.58          63.69         -10.57          8.344          53.95          85.82         -118.6          51.65          121.0
       1.0              -41.38           28.9          36.57          63.69         -10.57          8.335          53.81          85.77         -118.5          51.64          120.9
      1.05              -41.39           28.9          36.55          63.69         -10.57          8.326          53.65          85.71         -118.4          51.62          120.9
       1.1               -41.4          28.89          36.53          63.69         -10.57          8.316          53.48          85.64         -118.3          51.61          120.8
      1.15               -41.4          28.88          36.51          63.69         -10.57          8.304          53.29          85.57         -118.2          51.59          120.7
       1.2              -41.41          28.88          36.49          63.69         -10.58          8.291          53.08           85.5         -118.1          51.58          120.7
      1.25              -41.42          28.87          36.47          63.69         -10.58          8.277          52.85          85.41         -117.9          51.56          120.6
       1.3              -41.44          28.86          36.44           63.7         -10.58          8.261          52.58          85.31         -117.8          51.54          120.5
      1.35              -41.45          28.85          36.41           63.7         -10.59          8.243          52.29           85.2         -117.6          51.51          120.3
       1.4              -41.46          28.84          36.37           63.7         -10.59          8.223          51.95          85.08         -117.4          51.48          120.2
      1.45              -41.48          28.83          36.33           63.7         -10.59            8.2          51.57          84.94         -117.2          51.45          120.1
       1.5               -41.5          28.81          36.29           63.7          -10.6          8.174          51.14          84.78         -117.0          51.42          119.9
      1.55              -41.52           28.8          36.24          63.71          -10.6          8.144          50.64          84.59         -116.7          51.38          119.7
       1.6              -41.55          28.78          36.18          63.71         -10.61          8.109          50.07          84.38         -116.4          51.33          119.5
      1.65              -41.57          28.76          36.11          63.71         -10.62          8.068           49.4          84.13         -116.0          51.27          119.2
       1.7              -41.61          28.73          36.03          63.72         -10.63          8.021          48.62          83.85         -115.6          51.21          118.9
      1.75              -41.65           28.7          35.93          63.72         -10.64          7.965           47.7           83.5         -115.0          51.13          118.5
       1.8               -41.7          28.67          35.82          63.73         -10.65          7.899          46.61           83.1         -114.4          51.04          118.1
      1.85              -41.75          28.62          35.68          63.74         -10.66          7.819           45.3          82.61         -113.7          50.93          117.6
       1.9              -41.82          28.57          35.51          63.75         -10.68          7.723          43.72          82.03         -112.8           50.8          117.0
      1.95              -41.91          28.51          35.31          63.76          -10.7          7.606          41.78          81.31         -111.7          50.64          116.2
       2.0              -42.01          28.43          35.06          63.77         -10.73          7.461          39.39          80.43         -110.3          50.44          115.3
      2.05              -42.14          28.33          34.75          63.79         -10.76           7.28          36.41          79.32         -108.7           50.2          114.1
       2.1              -42.31          28.21          34.36          63.81          -10.8          7.052          32.66          77.93         -106.5          49.89          112.6
      2.15              -42.51          28.05          33.86          63.84         -10.85          6.763          27.88          76.16         -103.8          49.49          110.8
       2.2              -42.78          27.85          33.22          63.87         -10.92          6.392          21.78           73.9         -100.4          48.99          108.4
      2.25              -43.12           27.6           32.4          63.92         -11.01          5.917          13.94           71.0         -95.96          48.34          105.3
       2.3              -43.56          27.27          31.36          63.97         -11.12          5.309          3.925          67.29          -90.3          47.51          101.4
      2.35              -44.11          26.85          30.04          64.05         -11.25          4.545         -8.664          62.62         -83.19          46.47          96.45
       2.4              -44.78          26.35          28.44          64.13         -11.42          3.615         -24.01          56.94         -74.52           45.2          90.44
      2.45              -45.55          25.77          26.58          64.23         -11.62          2.536         -41.79          50.35         -64.47          43.73          83.47
       2.5               -46.4          25.14          24.57          64.34         -11.83          1.367         -61.04          43.22         -53.59          42.14          75.92
      2.55              -47.24          24.51          22.56          64.45         -12.04         0.1992          -80.3          36.09         -42.71          40.55          68.38
       2.6              -48.01          23.93          20.71          64.56         -12.24        -0.8797         -98.08           29.5         -32.67          39.07          61.41
      2.65              -48.68          23.42           19.1          64.64          -12.4          -1.81         -113.4          23.82          -24.0          37.81          55.39
       2.7              -49.23          23.01          17.79          64.72         -12.54         -2.574         -126.0          19.15         -16.89          36.76          50.46
      2.75              -49.67          22.68          16.74          64.77         -12.65         -3.182         -136.0          15.45         -11.23          35.94          46.54
       2.8              -50.01          22.43          15.92          64.82         -12.74         -3.657         -143.9          12.54         -6.799          35.29          43.46
      2.85              -50.28          22.23          15.29          64.85         -12.81         -4.028         -150.0          10.28         -3.348          34.78          41.07
       2.9              -50.49          22.07          14.79          64.88         -12.86         -4.317         -154.7          8.511        -0.6521          34.39           39.2
      2.95              -50.65          21.95           14.4           64.9          -12.9         -4.545         -158.5          7.121          1.469          34.08          37.73
